<svg xmlns="http://www.w3.org/2000/svg" xmlns:xlink="http://www.w3.org/1999/xlink" xmlns:lucid="lucid" width="792" height="902"><g transform="translate(-228.999999915166 781.0000000211529)" lucid:page-tab-id="0_0"><path d="M0-1000h1500V500H0z" fill="#fff"/><path d="M300-514a6 6 0 0 1 6-6h168a6 6 0 0 1 6 6v68a6 6 0 0 1-6 6H306a6 6 0 0 1-6-6z" stroke="#000" stroke-width="2" fill="#fff"/><use xlink:href="#a" transform="matrix(1,0,0,1,305,-515) translate(32.84071180555557 43.40277777777778)"/><path d="M550-700c0 44.18-71.63 80-160 80s-160-35.82-160-80 71.63-80 160-80 160 35.82 160 80z" fill="#fff"/><path d="M544.62-679.38l-.33.63-1.14 1.97-1.3 2.02-1.43 2.08-1.63 2.14-1.83 2.2-2.06 2.3-2.3 2.37-1.23 1.14m-8.25 6.9l-3.15 2.3-4.22 2.8-4.76 2.88-5.36 2.94-.8.4m-9.74 4.58l-2.2 1-7.5 2.95-8.34 2.9-2.13.64m-10.35 2.98l-6.72 1.72-10.85 2.3-3.44.6m-10.63 1.68l-9.86 1.24-11.56.96m-10.74.5l-3.96.17-6.8.07-10.76-.23m-10.75-.55l-5.2-.33-12.62-1.33-3.6-.54m-10.64-1.66l-9-1.7-10.43-2.46-1.6-.44m-10.33-3l-6.4-2.07-7.92-2.95-5.85-2.46m-9.73-4.62l-3.57-1.87-5.05-2.9-4.47-2.84-3.98-2.76-1.22-.93m-8.26-6.9l-2.4-2.34-2.2-2.32-1.93-2.24-1.74-2.18-1.53-2.1-1.37-2.06-1.2-2-.88-1.6m-3.97-9.98l-.3-1.22-.37-1.73-.3-1.73-.2-1.7-.15-1.7-.07-1.72v-.85l.04-1.7.1-1.7.18-1.72.25-1.7.33-1.73.4-1.74.1-.34m3.98-9.98l.33-.63 1.14-1.97 1.3-2.02 1.43-2.08 1.63-2.14 1.83-2.2 2.06-2.3 2.3-2.37 1.23-1.14m8.25-6.9l3.15-2.3 4.22-2.8 4.76-2.88 5.36-2.94.8-.4m9.74-4.58l2.2-1 7.5-2.95 8.34-2.9 2.13-.64m10.35-2.98l6.72-1.72 10.85-2.3 3.44-.6m10.63-1.68l9.86-1.24 11.56-.96m10.74-.5l3.96-.17 6.8-.07 10.76.23m10.75.55l5.2.33 12.62 1.33 3.6.54m10.64 1.66l9 1.7 10.43 2.46 1.6.44m10.33 3l6.4 2.07 7.92 2.95 5.85 2.46m9.73 4.62l3.57 1.87 5.05 2.9 4.47 2.84 3.98 2.76 1.22.93m8.26 6.9l2.4 2.34 2.2 2.32 1.93 2.24 1.74 2.18 1.53 2.1 1.37 2.06 1.2 2 .88 1.6m3.97 9.98l.3 1.22.37 1.73.3 1.73.2 1.7.15 1.7.07 1.72v.85l-.04 1.7-.1 1.7-.18 1.72-.25 1.7-.33 1.73-.4 1.74-.1.34" stroke="#000" stroke-width="2" fill="none"/><use xlink:href="#b" transform="matrix(1,0,0,1,235.00000000000003,-775) translate(108.16840277777777 82.46527777777777)"/><path d="M390.98-539.5h-1.96v-33.47h1.96zm0-55h-1.96V-618h1.96z" stroke="#5e5e5e" stroke-width=".05" fill="#5e5e5e"/><path d="M390-619h.98v1.03h-1.96v-1.05z" fill="#5e5e5e"/><path stroke="#5e5e5e" stroke-width=".05" fill="#5e5e5e"/><path d="M390-524.24l-4.63-14.26h9.26z" fill="#5e5e5e"/><path d="M390-521.08l-5.98-18.4h11.96zm-3.3-16.45l3.3 10.14 3.3-10.13z" stroke="#5e5e5e" stroke-width=".05" fill="#5e5e5e"/><use xlink:href="#c" transform="matrix(1,0,0,1,337.0876736111111,-594.4846616101215) translate(0 17.22222222222222)"/><path d="M290-174a6 6 0 0 1 6-6h168a6 6 0 0 1 6 6v68a6 6 0 0 1-6 6H296a6 6 0 0 1-6-6z" stroke="#000" stroke-width="2" fill="#fff"/><use xlink:href="#d" transform="matrix(1,0,0,1,295,-175) translate(10.2170138888889 43.40277777777778)"/><path d="M390-438v80.5" stroke="#5e5e5e" stroke-width="2" fill="none"/><path d="M390.98-437.97h-1.96V-439h1.96z" stroke="#5e5e5e" stroke-width=".05" fill="#5e5e5e"/><path d="M390-342.24l-4.63-14.26h9.26z" stroke="#5e5e5e" stroke-width="2" fill="#5e5e5e"/><path d="M680-40c0 22.1-22.4 40-50 40s-50-17.9-50-40 22.4-40 50-40 50 17.9 50 40z" stroke="#000" stroke-width="2" fill="#fff"/><path d="M640-85l-10 5 10 6" stroke="#000" stroke-width="2" fill="none"/><use xlink:href="#e" transform="matrix(1,0,0,1,540,0) translate(8.6740451388889 21.52777777777778)"/><path d="M630 2v38.5" stroke="#5e5e5e" stroke-width="2" fill="none"/><path d="M630 1l.98-.03v1.06H629V.95z" stroke="#5e5e5e" stroke-width=".05" fill="#5e5e5e"/><path d="M630 55.76l-4.63-14.26h9.26z" stroke="#5e5e5e" stroke-width="2" fill="#5e5e5e"/><path d="M550 66a6 6 0 0 1 6-6h148a6 6 0 0 1 6 6v48a6 6 0 0 1-6 6H556a6 6 0 0 1-6-6z" stroke="#000" stroke-width="2" fill="#fff"/><use xlink:href="#f" transform="matrix(1,0,0,1,555,65) translate(15.614149305555557 34.02777777777778)"/><path d="M712 90h68.5" stroke="#5e5e5e" stroke-width="2" fill="none"/><path d="M712.03 90.97H711v-1.94h1.03z" stroke="#5e5e5e" stroke-width=".05" fill="#5e5e5e"/><path d="M795.76 90l-14.26 4.64v-9.28z" stroke="#5e5e5e" stroke-width="2" fill="#5e5e5e"/><path d="M880 58v-158.5" stroke="#5e5e5e" stroke-width="2" fill="none"/><path d="M880.98 59H879v-1.03H881z" stroke="#5e5e5e" stroke-width=".05" fill="#5e5e5e"/><path d="M880-115.76l4.63 14.26h-9.26z" stroke="#5e5e5e" stroke-width="2" fill="#5e5e5e"/><path d="M800-174a6 6 0 0 1 6-6h148a6 6 0 0 1 6 6v48a6 6 0 0 1-6 6H806a6 6 0 0 1-6-6z" stroke="#000" stroke-width="2" fill="#fff"/><use xlink:href="#g" transform="matrix(1,0,0,1,805,-175) translate(16.308593750000014 34.02777777777778)"/><path d="M800 66a6 6 0 0 1 6-6h148a6 6 0 0 1 6 6v48a6 6 0 0 1-6 6H806a6 6 0 0 1-6-6z" stroke="#000" stroke-width="2" fill="#fff"/><use xlink:href="#h" transform="matrix(1,0,0,1,805,65) translate(29.22634548611112 34.02777777777778)"/><path d="M1020-478.7c0-11.77-26.86-21.3-60-21.3s-60 9.53-60 21.3v132c0 7.5 26.86 17.03 60 17.03s60-9.53 60-21.3z" stroke="#000" stroke-width="2" fill="#fff"/><path d="M1020-478.7c0 11.75-26.86 21.28-60 21.28s-60-9.53-60-21.3m120 16.2c0 7.5-26.86 17.03-60 17.03s-60-9.53-60-21.3m120 16.2c0 7.5-26.86 17.03-60 17.03s-60-9.53-60-21.3" stroke="#000" stroke-width="2" fill="#fff"/><use xlink:href="#i" transform="matrix(1,0,0,1,900,-460) translate(44.62456597222222 51.10850694444445)"/><use xlink:href="#j" transform="matrix(1,0,0,1,900,-460) translate(4.015842013888893 83.37413194444446)"/><use xlink:href="#k" transform="matrix(1,0,0,1,900,-460) translate(25.212673611111114 115.63975694444446)"/><path d="M880-182v-66.83a6 6 0 0 1 6-6h68a6 6 0 0 0 6-6v-49.33" stroke="#5e5e5e" stroke-width="2" fill="none"/><path d="M880.98-181H879v-1.03H881z" stroke="#5e5e5e" stroke-width=".05" fill="#5e5e5e"/><path d="M960-325.43l4.63 14.27h-9.26z" stroke="#5e5e5e" stroke-width="2" fill="#5e5e5e"/><path d="M522.3-168.96l-.07 1.05-.26 1.06-.42 1-.57.94-.7.83-.85.72-.93.57-1 .42-1.08.25-1.05.07H489.5v-1.94h25.8l.82-.07.76-.18.73-.3.68-.42.6-.5.52-.6.4-.68.3-.73.2-.76.06-.84v-17.46h1.95zm0-35.04h-1.94v-8.24h1.95zm0-29.75h-1.94V-239h1.95zm-5.88-47.14l1.07.26 1 .42.93.58.84.7.7.84.58.93.42 1 .25 1.08.1 1.06v17.54h-1.96v-17.46l-.07-.83-.2-.75-.3-.73-.4-.67-.52-.6-.6-.5-.67-.43-.72-.3-.76-.18-.83-.06h-15.4v-1.96h15.47zM484.45-279H469v-1.96h15.45z" stroke="#979ea8" stroke-width=".05" fill="#979ea8"/><path d="M469.03-279.02h-1.12l.1-.98-.1-.98h1.13z" fill="#979ea8"/><path stroke="#979ea8" stroke-width=".05" fill="#979ea8"/><path d="M488.5-158.37L474.24-163l14.26-4.63z" fill="#979ea8"/><path d="M489.48-157.02l-18.4-5.98 18.4-5.98zm-12.1-5.98l10.15 3.3v-6.6z" stroke="#979ea8" stroke-width=".05" fill="#979ea8"/><use xlink:href="#l" transform="matrix(1,0,0,1,501.4461805555556,-233.7530277484971) translate(0 17.22222222222222)"/><path d="M482-501.33h12.88m12.87 0h51.5m12.88 0H585a6 6 0 0 0 6-6V-519m0-11.67v-46.66m0-11.67v-23.33m0-11.67v-46.67m0-11.66V-694a6 6 0 0 0-6-6h-15.5" stroke="#979ea8" stroke-width="2" fill="none"/><path d="M482.03-500.36H481v-1.95h1.03z" stroke="#979ea8" stroke-width=".05" fill="#979ea8"/><path d="M554.24-700l14.26-4.63v9.26z" stroke="#979ea8" stroke-width="2" fill="#979ea8"/><path d="M385.2-336.4a8 8 0 0 1 9.6 0l70.4 52.8a4.5 4.5 0 0 1 0 7.2l-70.4 52.8a8 8 0 0 1-9.6 0l-70.4-52.8a4.5 4.5 0 0 1 0-7.2z" fill="#ced4db"/><path d="M441.73-301.2l23.47 17.6a4.5 4.5 0 0 1 0 7.2l-23.47 17.6m-23.46 17.6l-23.47 17.6a8 8 0 0 1-9.6 0l-23.47-17.6m-23.46-17.6l-23.47-17.6a4.5 4.5 0 0 1 0-7.2l23.47-17.6m23.46-17.6l23.47-17.6a8 8 0 0 1 9.6 0l23.47 17.6" stroke="#000" stroke-width="2" fill="none"/><use xlink:href="#m" transform="matrix(1,0,0,1,315,-335) translate(4.470486111111114 30.818142361111114)"/><use xlink:href="#n" transform="matrix(1,0,0,1,315,-335) translate(118.28342013888889 30.818142361111114)"/><use xlink:href="#o" transform="matrix(1,0,0,1,315,-335) translate(1.8391927083333286 63.083767361111114)"/><use xlink:href="#p" transform="matrix(1,0,0,1,315,-335) translate(84.83615451388889 63.083767361111114)"/><use xlink:href="#q" transform="matrix(1,0,0,1,315,-335) translate(19.053819444444443 95.34939236111111)"/><use xlink:href="#r" transform="matrix(1,0,0,1,315,-335) translate(50.846354166666664 95.34939236111111)"/><path d="M496.33-139.03H472v-1.94h24.33zm55.65-6.93l-.1 1.05-.24 1.06-.42 1-.58.94-.7.83-.84.72-.93.57-1 .42-1.08.25-1.06.07h-24.37v-1.94h24.3l.82-.07.75-.18.73-.3.67-.42.6-.5.5-.6.43-.68.3-.73.18-.76.06-.84v-21.83H552zm0-43.77H550v-43.74H552zm0-65.6H550v-43.74H552zm0-65.6H550v-43.74H552zm0-65.6H550v-43.74H552zm-5.9-94.36l1.08.26 1 .42.94.58.83.7.72.84.57.93.42 1 .25 1.08.08 1.06v21.9H550v-21.82l-.06-.83-.18-.75-.3-.73-.42-.67-.5-.6-.6-.5-.68-.43-.73-.3-.76-.18-.84-.06h-15.13v-1.96h15.2zM514.7-479H499.5v-1.96h15.17z" stroke="#979ea8" stroke-width=".05" fill="#979ea8"/><path d="M472.03-139.03H471v-1.94h1.03z" fill="#979ea8"/><path stroke="#979ea8" stroke-width=".05" fill="#979ea8"/><path d="M498.5-475.37L484.24-480l14.26-4.63z" fill="#979ea8"/><path d="M499.48-474.02l-18.4-5.98 18.4-5.98zm-12.1-5.98l10.15 3.3v-6.6z" stroke="#979ea8" stroke-width=".05" fill="#979ea8"/><path d="M249.97-146.04l.07.83.18.75.3.73.42.67.5.6.6.5.68.42.73.3.76.2.84.06h15.46v1.94h-15.54l-1.05-.08-1.06-.26-1-.42-.94-.57-.83-.72-.72-.83-.57-.93-.42-1-.25-1.08-.07-1.06v-64.78h1.94zM311-279.02h-55.96l-.83.06-.75.18-.73.3-.67.42-.6.5-.5.6-.42.68-.3.73-.2.76-.06.84v41.7h-1.94v-41.78l.08-1.05.26-1.06.42-1 .57-.94.72-.83.83-.7.93-.6 1-.4 1.08-.26 1.06-.08H311z" stroke="#5e5e5e" stroke-width=".05" fill="#5e5e5e"/><path d="M312-280l.1.98h-1.13v-1.96h1.12z" fill="#5e5e5e"/><path stroke="#5e5e5e" stroke-width=".05" fill="#5e5e5e"/><path d="M285.76-140l-14.26 4.63v-9.26z" fill="#5e5e5e"/><path d="M288.92-140l-18.4 5.98v-11.96zm-16.45 3.3l10.14-3.3-10.13-3.3z" stroke="#5e5e5e" stroke-width=".05" fill="#5e5e5e"/><g><use xlink:href="#s" transform="matrix(1,0,0,1,232.40282777777668,-232.25304686620257) translate(0.004999999999999005 17.22222222222222)"/></g><path d="M380-98v62a6 6 0 0 0 6 6h176.06" stroke="#5e5e5e" stroke-width="2" fill="none"/><path d="M380.98-97.97h-1.96V-99h1.96z" stroke="#5e5e5e" stroke-width=".05" fill="#5e5e5e"/><path d="M577.33-30l-14.27 4.64v-9.27z" stroke="#5e5e5e" stroke-width="2" fill="#5e5e5e"/><defs><path d="M180 0v-1490h908v168H370v486h669v168H370v500h727V0H180" id="t"/><path d="M338-670V0H158v-1118h173l1 207c72-158 192-221 342-221 226 0 378 139 378 422V0H872v-695c0-172-96-275-252-275-161 0-282 109-282 300" id="u"/><path d="M577 24c-279 0-473-224-473-580 0-354 195-576 474-576 218 0 287 134 324 193h14v-551h180V0H922v-173h-20C865-111 790 24 577 24zm27-161c203 0 314-172 314-421 0-247-108-413-314-413-212 0-317 181-317 413 0 235 108 421 317 421" id="v"/><path d="M158 418v-1536h174v179h20c37-59 106-193 324-193 279 0 474 222 474 576 0 356-194 580-473 580-213 0-288-135-325-197h-14v591H158zm492-555c209 0 317-186 317-421 0-232-105-413-317-413-206 0-314 166-314 413 0 249 111 421 314 421" id="w"/><path d="M613 24c-304 0-509-231-509-576 0-350 205-580 509-580 305 0 511 230 511 580 0 345-206 576-511 576zm0-161c226 0 329-195 329-415 0-222-103-419-329-419-223 0-326 196-326 419 0 220 103 415 326 415" id="x"/><path d="M158 0v-1118h180V0H158zm91-1301c-68 0-125-53-125-119s57-119 125-119c69 0 126 53 126 119s-57 119-126 119" id="y"/><path d="M598-1118v154H368v674c0 100 37 144 132 144 23 0 62-6 92-12L629-6c-37 13-88 20-134 20-193 0-307-107-307-290v-688H20v-154h168v-266h180v266h230" id="z"/><path d="M538 24C308 24 148-78 108-271l171-41c32 123 123 178 257 178 156 0 256-77 256-169 0-77-54-128-164-154l-186-44c-203-48-300-148-300-305 0-192 176-326 414-326 230 0 351 112 402 269l-163 42c-31-80-94-158-238-158-133 0-233 69-233 162 0 83 57 129 188 160l169 40c203 48 298 149 298 302 0 196-179 339-441 339" id="A"/><g id="a"><use transform="matrix(0.010850694444444444,0,0,0.010850694444444444,0,0)" xlink:href="#t"/><use transform="matrix(0.010850694444444444,0,0,0.010850694444444444,13.35720486111111,0)" xlink:href="#u"/><use transform="matrix(0.010850694444444444,0,0,0.010850694444444444,26.48654513888889,0)" xlink:href="#v"/><use transform="matrix(0.010850694444444444,0,0,0.010850694444444444,40.093315972222214,0)" xlink:href="#w"/><use transform="matrix(0.010850694444444444,0,0,0.010850694444444444,53.70008680555554,0)" xlink:href="#x"/><use transform="matrix(0.010850694444444444,0,0,0.010850694444444444,67.02473958333331,0)" xlink:href="#y"/><use transform="matrix(0.010850694444444444,0,0,0.010850694444444444,72.40668402777776,0)" xlink:href="#u"/><use transform="matrix(0.010850694444444444,0,0,0.010850694444444444,85.53602430555553,0)" xlink:href="#z"/><use transform="matrix(0.010850694444444444,0,0,0.010850694444444444,92.58897569444441,0)" xlink:href="#A"/></g><path d="M180 0v-1490h901v168H370v510h643v168H370V0H180" id="B"/><path d="M158 0v-1118h174v172h12c41-113 157-188 290-188 26 0 70 2 91 3v181c-11-2-60-10-108-10-161 0-279 109-279 260V0H158" id="C"/><path d="M628 24c-324 0-524-230-524-574 0-343 198-582 503-582 237 0 487 146 487 559v75H286c9 234 145 362 343 362 132 0 231-58 273-172l174 48C1024-91 857 24 628 24zM287-650h624c-17-190-120-322-304-322-192 0-309 151-320 322" id="D"/><g id="b"><use transform="matrix(0.010850694444444444,0,0,0.010850694444444444,0,0)" xlink:href="#B"/><use transform="matrix(0.010850694444444444,0,0,0.010850694444444444,12.467447916666666,0)" xlink:href="#C"/><use transform="matrix(0.010850694444444444,0,0,0.010850694444444444,20.46440972222222,0)" xlink:href="#x"/><use transform="matrix(0.010850694444444444,0,0,0.010850694444444444,33.7890625,0)" xlink:href="#u"/><use transform="matrix(0.010850694444444444,0,0,0.010850694444444444,46.91840277777778,0)" xlink:href="#z"/><use transform="matrix(0.010850694444444444,0,0,0.010850694444444444,53.97135416666667,0)" xlink:href="#D"/><use transform="matrix(0.010850694444444444,0,0,0.010850694444444444,66.92708333333334,0)" xlink:href="#u"/><use transform="matrix(0.010850694444444444,0,0,0.010850694444444444,80.05642361111111,0)" xlink:href="#v"/></g><path d="M135 0v-1490h581c339 0 533 192 533 485 0 204-94 351-264 424L1302 0H964L680-532H440V0H135zm305-779h220c186 0 274-77 274-226 0-150-88-233-275-233H440v459" id="E"/><path d="M633 22C291 22 81-200 81-553c0-345 210-579 537-579 292 0 525 185 525 567v84H378c7 183 109 277 260 277 105 0 184-46 216-132l272 51C1071-99 893 22 633 22zM380-669h474c-15-146-94-237-233-237-143 0-229 99-241 237" id="F"/><path d="M1163 418H863v-597h-10C812-89 719 19 537 19 279 19 81-185 81-557c0-382 206-575 454-575 190 0 278 113 318 202h15v-188h295V418zM629-222c153 0 240-134 240-336 0-203-86-334-240-334-158 0-240 138-240 334 0 197 84 336 240 336" id="G"/><path d="M513 14c-232 0-385-159-385-421v-711h300v659c0 139 76 222 202 222 127 0 217-86 217-234v-647h301V0H864l-4-232C797-74 683 14 513 14" id="H"/><path d="M128 0v-1118h300V0H128zm150-1264c-91 0-165-68-165-154 0-85 74-154 165-154 90 0 165 69 165 154 0 86-75 154-165 154" id="I"/><path d="M572 22C302 22 117-98 78-306l279-48c29 105 101 156 224 156 114 0 185-48 185-115 0-118-228-130-337-155-215-49-322-150-322-317 0-215 187-347 470-347 265 0 424 116 466 298l-266 47c-24-76-87-130-196-130-98 0-174 46-174 113 0 56 38 95 144 117l201 40c216 44 320 143 320 302 0 220-207 367-500 367" id="J"/><path d="M499 418V299c80-5 216 24 216-62 0-44-25-60-89-60h-91l26-158C264-10 81-233 81-554c0-346 210-578 547-578 265 0 455 142 497 372l-279 52c-25-116-99-188-215-188-160 0-244 139-244 341 0 200 84 341 244 341 116 0 193-74 217-195l279 51C1088-140 923 0 685 20l-4 68c126-6 197 51 197 157 0 123-72 173-239 173H499" id="K"/><path d="M628 22C291 22 81-210 81-554c0-346 210-578 547-578 336 0 547 232 547 578 0 344-211 576-547 576zm0-236c160 0 242-146 242-341 0-197-82-341-242-341S387-753 387-555c0 195 81 341 241 341zm140-1068c-128 0-194-103-258-103-41 0-63 39-65 97H280c4-169 85-265 208-265 129 0 189 103 257 103 45 0 64-33 68-97h162c-3 169-89 265-207 265" id="L"/><g id="c"><use transform="matrix(0.008680555555555556,0,0,0.008680555555555556,0,0)" xlink:href="#E"/><use transform="matrix(0.008680555555555556,0,0,0.008680555555555556,11.458333333333334,0)" xlink:href="#F"/><use transform="matrix(0.008680555555555556,0,0,0.008680555555555556,22.048611111111114,0)" xlink:href="#G"/><use transform="matrix(0.008680555555555556,0,0,0.008680555555555556,33.255208333333336,0)" xlink:href="#H"/><use transform="matrix(0.008680555555555556,0,0,0.008680555555555556,44.32291666666667,0)" xlink:href="#I"/><use transform="matrix(0.008680555555555556,0,0,0.008680555555555556,49.14062500000001,0)" xlink:href="#J"/><use transform="matrix(0.008680555555555556,0,0,0.008680555555555556,59.09722222222222,0)" xlink:href="#I"/><use transform="matrix(0.008680555555555556,0,0,0.008680555555555556,63.914930555555564,0)" xlink:href="#K"/><use transform="matrix(0.008680555555555556,0,0,0.008680555555555556,74.37500000000001,0)" xlink:href="#L"/><use transform="matrix(0.008680555555555556,0,0,0.008680555555555556,85.2777777777778,0)" xlink:href="#F"/><use transform="matrix(0.008680555555555556,0,0,0.008680555555555556,95.86805555555557,0)" xlink:href="#J"/><path d="M-.9 3.63h107.6v1.65H-.9z"/></g><path d="M471 26C259 26 90-98 90-318c0-256 228-303 435-329 202-27 287-16 287-108 0-139-79-219-234-219-161 0-248 86-283 164l-173-57c86-203 278-265 451-265 150 0 419 46 419 395V0H815v-152h-12C765-73 660 26 471 26zm31-159c199 0 310-134 310-271v-155c-30 35-226 55-295 64-131 17-246 59-246 186 0 116 97 176 231 176" id="M"/><path d="M645 0H180v-1490h484c435 0 692 280 692 742 0 466-257 748-711 748zM370-168h263c363 0 539-218 539-580 0-358-176-574-521-574H370v1154" id="N"/><path d="M98-1322v-168h1126v168H757V0H567v-1322H98" id="O"/><path d="M784 20c-382 0-662-292-662-764 0-473 280-766 662-766s660 293 660 766c0 472-278 764-660 764zm0-176c266 0 475-207 475-588 0-383-209-590-475-590-268 0-477 208-477 590 0 380 209 588 477 588" id="P"/><g id="d"><use transform="matrix(0.010850694444444444,0,0,0.010850694444444444,0,0)" xlink:href="#t"/><use transform="matrix(0.010850694444444444,0,0,0.010850694444444444,13.35720486111111,0)" xlink:href="#u"/><use transform="matrix(0.010850694444444444,0,0,0.010850694444444444,26.48654513888889,0)" xlink:href="#z"/><use transform="matrix(0.010850694444444444,0,0,0.010850694444444444,33.756510416666664,0)" xlink:href="#y"/><use transform="matrix(0.010850694444444444,0,0,0.010850694444444444,39.13845486111111,0)" xlink:href="#v"/><use transform="matrix(0.010850694444444444,0,0,0.010850694444444444,52.74522569444444,0)" xlink:href="#M"/><use transform="matrix(0.010850694444444444,0,0,0.010850694444444444,65.22352430555556,0)" xlink:href="#v"/><use transform="matrix(0.010850694444444444,0,0,0.010850694444444444,78.83029513888889,0)" xlink:href="#D"/><use transform="matrix(0.010850694444444444,0,0,0.010850694444444444,91.78602430555556,0)" xlink:href="#A"/><use transform="matrix(0.010850694444444444,0,0,0.010850694444444444,103.515625,0)" xlink:href="#N"/><use transform="matrix(0.010850694444444444,0,0,0.010850694444444444,118.89105902777777,0)" xlink:href="#O"/><use transform="matrix(0.010850694444444444,0,0,0.010850694444444444,132.5737847222222,0)" xlink:href="#P"/></g><path d="M783 20c-382 0-661-292-661-764 0-473 279-766 661-766 302 0 548 182 601 489h-190c-42-204-217-313-411-313-268 0-476 208-476 590 0 381 209 588 476 588 195 0 369-110 411-313h190c-52 303-296 489-601 489" id="Q"/><path d="M180 0v-1490h224l606 953c40 63 108 177 176 312-27-437-7-821-13-1265h190V0h-226C860-448 622-778 356-1262c27 476 11 792 15 1262H180" id="R"/><path d="M180 0v-1490h510c348 0 508 194 508 460 0 198-88 351-276 417L1256 0h-220L726-579c-117 2-238 0-356 1V0H180zm190-747h312c235 0 327-108 327-283 0-177-92-293-329-293H370v576" id="S"/><path d="M180 0v-1490h190v1322h690V0H180" id="T"/><path d="M657 26c-323 0-524-166-541-416h195c15 169 171 246 346 246 202 0 356-106 356-265 5-203-294-238-475-293-239-73-380-191-380-389 0-252 224-419 512-419 294 0 499 171 508 396H992c-17-145-151-228-328-228-193 0-321 102-321 242 0 156 175 211 284 241l149 41c160 44 422 134 422 412 0 244-197 432-541 432" id="U"/><g id="e"><use transform="matrix(0.010850694444444444,0,0,0.010850694444444444,0,0)" xlink:href="#Q"/><use transform="matrix(0.010850694444444444,0,0,0.010850694444444444,16.23263888888889,0)" xlink:href="#P"/><use transform="matrix(0.010850694444444444,0,0,0.010850694444444444,33.224826388888886,0)" xlink:href="#R"/><use transform="matrix(0.010850694444444444,0,0,0.010850694444444444,49.967447916666664,0)" xlink:href="#O"/><use transform="matrix(0.010850694444444444,0,0,0.010850694444444444,64.31206597222221,0)" xlink:href="#S"/><use transform="matrix(0.010850694444444444,0,0,0.010850694444444444,78.61328124999999,0)" xlink:href="#P"/><use transform="matrix(0.010850694444444444,0,0,0.010850694444444444,95.60546874999997,0)" xlink:href="#T"/><use transform="matrix(0.010850694444444444,0,0,0.010850694444444444,108.17057291666666,0)" xlink:href="#T"/><use transform="matrix(0.010850694444444444,0,0,0.010850694444444444,120.73567708333333,0)" xlink:href="#t"/><use transform="matrix(0.010850694444444444,0,0,0.010850694444444444,134.09288194444443,0)" xlink:href="#S"/><use transform="matrix(0.010850694444444444,0,0,0.010850694444444444,148.3940972222222,0)" xlink:href="#U"/></g><g id="f"><use transform="matrix(0.010850694444444444,0,0,0.010850694444444444,0,0)" xlink:href="#S"/><use transform="matrix(0.010850694444444444,0,0,0.010850694444444444,13.975694444444445,0)" xlink:href="#D"/><use transform="matrix(0.010850694444444444,0,0,0.010850694444444444,26.931423611111104,0)" xlink:href="#w"/><use transform="matrix(0.010850694444444444,0,0,0.010850694444444444,40.53819444444444,0)" xlink:href="#x"/><use transform="matrix(0.010850694444444444,0,0,0.010850694444444444,53.86284722222222,0)" xlink:href="#A"/><use transform="matrix(0.010850694444444444,0,0,0.010850694444444444,65.59244791666667,0)" xlink:href="#y"/><use transform="matrix(0.010850694444444444,0,0,0.010850694444444444,70.97439236111111,0)" xlink:href="#z"/><use transform="matrix(0.010850694444444444,0,0,0.010850694444444444,78.02734375,0)" xlink:href="#x"/><use transform="matrix(0.010850694444444444,0,0,0.010850694444444444,91.35199652777777,0)" xlink:href="#C"/><use transform="matrix(0.010850694444444444,0,0,0.010850694444444444,100.06510416666666,0)" xlink:href="#y"/><use transform="matrix(0.010850694444444444,0,0,0.010850694444444444,105.44704861111111,0)" xlink:href="#x"/></g><path d="M180 0v-1490h510c348 0 508 209 508 474 0 266-160 477-507 477H370V0H180zm190-706h312c236 0 327-133 327-310 0-176-91-307-329-307H370v617" id="V"/><path d="M157-1118h181V80c1 225-123 350-364 338V252c126 9 184-48 183-172v-1198zm91-183c-68 0-125-53-125-119s57-119 125-119c69 0 126 53 126 119s-57 119-126 119" id="W"/><path d="M613 24c-304 0-509-231-509-576 0-350 205-580 509-580 216 0 392 114 453 309l-173 49c-33-115-133-197-280-197-223 0-326 196-326 419 0 220 103 415 326 415 150 0 252-85 285-206l172 49C1010-95 832 24 613 24" id="X"/><g id="g"><use transform="matrix(0.010850694444444444,0,0,0.010850694444444444,0,0)" xlink:href="#V"/><use transform="matrix(0.010850694444444444,0,0,0.010850694444444444,14.192708333333332,0)" xlink:href="#C"/><use transform="matrix(0.010850694444444444,0,0,0.010850694444444444,22.189670138888886,0)" xlink:href="#x"/><use transform="matrix(0.010850694444444444,0,0,0.010850694444444444,35.514322916666664,0)" xlink:href="#W"/><use transform="matrix(0.010850694444444444,0,0,0.010850694444444444,40.89626736111111,0)" xlink:href="#D"/><use transform="matrix(0.010850694444444444,0,0,0.010850694444444444,53.85199652777778,0)" xlink:href="#X"/><use transform="matrix(0.010850694444444444,0,0,0.010850694444444444,66.54730902777777,0)" xlink:href="#z"/><use transform="matrix(0.010850694444444444,0,0,0.010850694444444444,73.81727430555554,0)" xlink:href="#y"/><use transform="matrix(0.010850694444444444,0,0,0.010850694444444444,79.19921874999999,0)" xlink:href="#x"/><use transform="matrix(0.010850694444444444,0,0,0.010850694444444444,92.52387152777776,0)" xlink:href="#u"/><use transform="matrix(0.010850694444444444,0,0,0.010850694444444444,105.65321180555553,0)" xlink:href="#A"/></g><path d="M481 0L54-1118h197c107 314 236 620 325 951 87-331 217-637 324-951h197L670 0H481" id="Y"/><path d="M502 418V313h118c73 0 98-17 98-66s-25-65-98-65h-82l21-161C285-4 104-228 104-552c0-350 205-580 509-580 216 0 392 114 453 309l-173 49c-33-115-133-197-280-197-223 0-326 196-326 419 0 220 103 415 326 415 150 0 252-85 285-206l172 49C1015-110 859 5 663 22v64c130 5 189 54 189 162 0 118-71 170-231 170H502" id="Z"/><g id="h"><use transform="matrix(0.010850694444444444,0,0,0.010850694444444444,0,0)" xlink:href="#U"/><use transform="matrix(0.010850694444444444,0,0,0.010850694444444444,14.2578125,0)" xlink:href="#D"/><use transform="matrix(0.010850694444444444,0,0,0.010850694444444444,27.213541666666664,0)" xlink:href="#C"/><use transform="matrix(0.010850694444444444,0,0,0.010850694444444444,35.92664930555555,0)" xlink:href="#Y"/><use transform="matrix(0.010850694444444444,0,0,0.010850694444444444,48.41579861111111,0)" xlink:href="#y"/><use transform="matrix(0.010850694444444444,0,0,0.010850694444444444,53.79774305555556,0)" xlink:href="#Z"/><use transform="matrix(0.010850694444444444,0,0,0.010850694444444444,66.49305555555554,0)" xlink:href="#x"/><use transform="matrix(0.010850694444444444,0,0,0.010850694444444444,79.81770833333331,0)" xlink:href="#A"/></g><path d="M659 0H135v-1490h529c448 0 721 280 721 744 0 466-273 746-726 746zM440-263h204c287 0 437-148 437-483 0-333-150-481-435-481H440v964" id="aa"/><path d="M135 0v-1490h591c327 0 492 160 492 383 0 177-115 286-268 320v15c168 8 326 140 326 361 0 236-176 411-512 411H135zm305-251h264c179 0 258-76 258-189 0-125-97-215-250-215H440v404zm0-613h241c131 0 228-74 228-194 0-109-79-183-222-183H440v377" id="ab"/><g id="i"><use transform="matrix(0.010850694444444444,0,0,0.010850694444444444,0,0)" xlink:href="#aa"/><use transform="matrix(0.010850694444444444,0,0,0.010850694444444444,16.048177083333332,0)" xlink:href="#ab"/></g><path d="M428-1490V0H128v-1490h300" id="ac"/><path d="M440 22C227 22 68-92 68-313c0-250 202-322 422-343 195-21 271-24 271-105 0-95-63-149-175-149-116 0-187 57-211 129l-275-46c57-194 237-305 487-305 240 0 474 108 474 379V0H777v-155h-10C713-51 605 22 440 22zm85-211c140 0 238-93 238-211v-121c-37 26-156 42-222 51-111 16-185 59-185 149 0 87 70 132 169 132" id="ad"/><path d="M628 22C291 22 81-210 81-554c0-346 210-578 547-578 265 0 455 142 497 372l-279 52c-25-116-99-188-215-188-160 0-244 139-244 341 0 200 84 341 244 341 116 0 193-74 217-195l279 51C1085-123 896 22 628 22" id="ae"/><path d="M628 22C291 22 81-210 81-554c0-346 210-578 547-578 336 0 547 232 547 578 0 344-211 576-547 576zm0-236c160 0 242-146 242-341 0-197-82-341-242-341S387-753 387-555c0 195 81 341 241 341" id="af"/><path d="M428-647V0H128v-1118h283l4 231c63-156 176-245 348-245 232 0 384 159 384 421V0H847v-659c0-139-76-222-202-222-128 0-217 86-217 234" id="ag"/><g id="j"><use transform="matrix(0.010850694444444444,0,0,0.010850694444444444,0,0)" xlink:href="#E"/><use transform="matrix(0.010850694444444444,0,0,0.010850694444444444,14.322916666666666,0)" xlink:href="#F"/><use transform="matrix(0.010850694444444444,0,0,0.010850694444444444,27.56076388888889,0)" xlink:href="#ac"/><use transform="matrix(0.010850694444444444,0,0,0.010850694444444444,33.58289930555555,0)" xlink:href="#ad"/><use transform="matrix(0.010850694444444444,0,0,0.010850694444444444,46.484374999999986,0)" xlink:href="#ae"/><use transform="matrix(0.010850694444444444,0,0,0.010850694444444444,59.55946180555555,0)" xlink:href="#I"/><use transform="matrix(0.010850694444444444,0,0,0.010850694444444444,65.58159722222221,0)" xlink:href="#af"/><use transform="matrix(0.010850694444444444,0,0,0.010850694444444444,79.21006944444443,0)" xlink:href="#ag"/><use transform="matrix(0.010850694444444444,0,0,0.010850694444444444,93.04470486111111,0)" xlink:href="#ad"/><use transform="matrix(0.010850694444444444,0,0,0.010850694444444444,105.94618055555556,0)" xlink:href="#ac"/></g><path d="M169-607c0-330 107-732 258-974h279c-145 311-231 674-231 974 0 262 67 512 231 886H427C258-1 169-307 169-607" id="ah"/><path d="M789 20C394 20 94-260 94-744c0-487 300-766 695-766s695 279 695 766c0 485-300 764-695 764zm0-271c231 0 385-174 385-493 0-321-154-495-385-495s-385 175-385 495c0 319 154 493 385 493" id="ai"/><path d="M135 0v-1490h468l242 684c30 94 76 293 111 455 34-161 80-360 110-455l238-684h470V0h-307c0-447-3-765 11-1227-122 503-246 788-395 1227H826C676-435 552-717 427-1215c15 453 11 775 11 1215H135" id="aj"/><path d="M67 279c166-379 230-627 230-886 0-300-86-663-230-974h278c151 241 258 644 258 974 0 302-90 608-258 886H67" id="ak"/><g id="k"><use transform="matrix(0.010850694444444444,0,0,0.010850694444444444,0,0)" xlink:href="#ah"/><use transform="matrix(0.010850694444444444,0,0,0.010850694444444444,8.37673611111111,0)" xlink:href="#ai"/><use transform="matrix(0.010850694444444444,0,0,0.010850694444444444,25.499131944444443,0)" xlink:href="#E"/><use transform="matrix(0.010850694444444444,0,0,0.010850694444444444,40.09331597222222,0)" xlink:href="#aj"/><use transform="matrix(0.010850694444444444,0,0,0.010850694444444444,61.197916666666664,0)" xlink:href="#ak"/></g><path fill="#333" d="M135 0v-1490h340l471 754c59 97 122 210 187 365-32-387-14-721-19-1119h312V0h-341C855-382 627-689 427-1113c32 420 16 695 20 1113H135" id="al"/><path fill="#333" d="M49 0l509-1490h400L1480 0h-339l-115-346H497L386 0H49zm853-1654c-127 0-194-103-257-103-42 0-63 39-66 97H414c4-169 85-265 209-265 129 0 188 103 257 103 45 0 63-33 67-97h163c-4 169-89 265-208 265zM573-585h374c-75-213-124-402-192-666-66 268-110 453-182 666" id="am"/><path fill="#333" d="M789 20C394 20 94-260 94-744c0-487 300-766 695-766s695 279 695 766c0 485-300 764-695 764zm0-271c231 0 385-174 385-493 0-321-154-495-385-495s-385 175-385 495c0 319 154 493 385 493" id="an"/><g id="l"><use transform="matrix(0.008680555555555556,0,0,0.008680555555555556,0,0)" xlink:href="#al"/><use transform="matrix(0.008680555555555556,0,0,0.008680555555555556,13.550347222222223,0)" xlink:href="#am"/><use transform="matrix(0.008680555555555556,0,0,0.008680555555555556,26.07638888888889,0)" xlink:href="#an"/></g><path d="M135 0v-1490h340l471 754c59 97 122 210 187 365-32-387-14-721-19-1119h312V0h-341C855-382 627-689 427-1113c32 420 16 695 20 1113H135" id="ao"/><path d="M683-1118v229H474v562c0 71 29 104 102 104 23 0 73-7 95-13l43 225C647 9 580 16 520 16 296 16 174-96 174-301v-588H20v-229h154v-266h300v266h209" id="ap"/><g id="m"><use transform="matrix(0.010850694444444444,0,0,0.010850694444444444,0,0)" xlink:href="#ao"/><use transform="matrix(0.010850694444444444,0,0,0.010850694444444444,16.93793402777778,0)" xlink:href="#F"/><use transform="matrix(0.010850694444444444,0,0,0.010850694444444444,30.17578125,0)" xlink:href="#ae"/><use transform="matrix(0.010850694444444444,0,0,0.010850694444444444,43.25086805555556,0)" xlink:href="#F"/><use transform="matrix(0.010850694444444444,0,0,0.010850694444444444,56.48871527777778,0)" xlink:href="#J"/><use transform="matrix(0.010850694444444444,0,0,0.010850694444444444,68.93446180555556,0)" xlink:href="#J"/><use transform="matrix(0.010850694444444444,0,0,0.010850694444444444,81.38020833333333,0)" xlink:href="#I"/><use transform="matrix(0.010850694444444444,0,0,0.010850694444444444,87.40234375,0)" xlink:href="#ap"/><use transform="matrix(0.010850694444444444,0,0,0.010850694444444444,95.64887152777777,0)" xlink:href="#ad"/></g><path d="M537 19C279 19 81-185 81-557c0-382 206-575 454-575 190 0 278 113 318 202h10v-560h300V0H868v-179h-15C812-89 719 19 537 19zm92-241c153 0 240-134 240-336 0-203-86-334-240-334-158 0-240 138-240 334 0 197 84 336 240 336" id="aq"/><g id="n"><use transform="matrix(0.010850694444444444,0,0,0.010850694444444444,0,0)" xlink:href="#aq"/><use transform="matrix(0.010850694444444444,0,0,0.010850694444444444,14.008246527777777,0)" xlink:href="#F"/></g><g id="o"><use transform="matrix(0.010850694444444444,0,0,0.010850694444444444,0,0)" xlink:href="#ad"/><use transform="matrix(0.010850694444444444,0,0,0.010850694444444444,12.901475694444445,0)" xlink:href="#ae"/><use transform="matrix(0.010850694444444444,0,0,0.010850694444444444,25.9765625,0)" xlink:href="#F"/><use transform="matrix(0.010850694444444444,0,0,0.010850694444444444,39.21440972222222,0)" xlink:href="#J"/><use transform="matrix(0.010850694444444444,0,0,0.010850694444444444,51.66015625,0)" xlink:href="#J"/><use transform="matrix(0.010850694444444444,0,0,0.010850694444444444,64.10590277777777,0)" xlink:href="#af"/></g><path d="M128 0v-1118h290v195h12c54-169 184-238 367-200v268c-27-8-86-15-130-15-138 0-239 95-239 234V0H128" id="ar"/><g id="p"><use transform="matrix(0.010850694444444444,0,0,0.010850694444444444,0,0)" xlink:href="#aq"/><use transform="matrix(0.010850694444444444,0,0,0.010850694444444444,14.008246527777777,0)" xlink:href="#I"/><use transform="matrix(0.010850694444444444,0,0,0.010850694444444444,20.030381944444443,0)" xlink:href="#ar"/><use transform="matrix(0.010850694444444444,0,0,0.010850694444444444,28.53732638888889,0)" xlink:href="#F"/><use transform="matrix(0.010850694444444444,0,0,0.010850694444444444,41.77517361111111,0)" xlink:href="#ap"/><use transform="matrix(0.010850694444444444,0,0,0.010850694444444444,49.69618055555556,0)" xlink:href="#af"/></g><g id="q"><use transform="matrix(0.010850694444444444,0,0,0.010850694444444444,0,0)" xlink:href="#ad"/><use transform="matrix(0.010850694444444444,0,0,0.010850694444444444,12.901475694444445,0)" xlink:href="#af"/></g><path d="M754 19C571 19 479-89 437-179h-14V0H128v-1490h300v560h9c41-89 129-202 319-202 248 0 453 193 453 575 0 372-197 576-455 576zm-92-241c156 0 240-139 240-336 0-196-83-334-240-334-154 0-241 131-241 334 0 202 88 336 241 336" id="as"/><path d="M390-458c-5-262 65-345 192-421 92-55 159-122 159-219 0-103-81-170-182-170-97 0-187 63-192 185H79c4-288 220-427 481-427 287 0 489 150 489 402 0 170-86 277-223 359-123 72-173 130-168 291H390zM525 19c-105 0-178-69-178-169 0-101 73-170 178-170 104 0 177 69 177 170 0 100-73 169-177 169" id="at"/><g id="r"><use transform="matrix(0.010850694444444444,0,0,0.010850694444444444,0,0)" xlink:href="#as"/><use transform="matrix(0.010850694444444444,0,0,0.010850694444444444,14.225260416666666,0)" xlink:href="#ad"/><use transform="matrix(0.010850694444444444,0,0,0.010850694444444444,27.12673611111111,0)" xlink:href="#ag"/><use transform="matrix(0.010850694444444444,0,0,0.010850694444444444,40.96137152777778,0)" xlink:href="#ae"/><use transform="matrix(0.010850694444444444,0,0,0.010850694444444444,54.03645833333333,0)" xlink:href="#af"/><use transform="matrix(0.010850694444444444,0,0,0.010850694444444444,67.66493055555556,0)" xlink:href="#at"/></g><path fill="#333" d="M681 22C323 22 94-145 85-462h297c10 151 131 226 296 226 163 0 271-77 271-190 0-102-95-149-257-189l-164-41c-252-61-403-188-403-405 0-269 236-449 560-449 330 0 546 183 551 445H941c-11-119-106-188-259-188-156 0-244 72-244 172-3 156 226 185 373 221 250 61 445 186 445 436 0 271-213 446-575 446" id="au"/><path fill="#333" d="M440-1490V0H135v-1490h305" id="av"/><path fill="#333" d="M135 0v-1490h468l242 684c30 94 76 293 111 455 34-161 80-360 110-455l238-684h470V0h-307c0-447-3-765 11-1227-122 503-246 788-395 1227H826C676-435 552-717 427-1215c15 453 11 775 11 1215H135" id="aw"/><g id="s"><use transform="matrix(0.008680555555555556,0,0,0.008680555555555556,0,0)" xlink:href="#au"/><use transform="matrix(0.008680555555555556,0,0,0.008680555555555556,11.640625,0)" xlink:href="#av"/><use transform="matrix(0.008680555555555556,0,0,0.008680555555555556,16.631944444444443,0)" xlink:href="#aw"/></g></defs></g></svg>